<?xml version="1.0" encoding="utf-8"?>
<!-- Generator: Adobe Illustrator 27.5.0, SVG Export Plug-In . SVG Version: 6.00 Build 0)  -->
<svg version="1.1" id="Layer_1" xmlns="http://www.w3.org/2000/svg" xmlns:xlink="http://www.w3.org/1999/xlink" x="0px" y="0px"
	 viewBox="0 0 4000 4000" style="enable-background:new 0 0 4000 4000;" xml:space="preserve">
<g>
	<g>
		<rect style="fill:#ffffff;" width="4000" height="4000"/>
	</g>
	<g>
		<g style="opacity:0.2;">
			<ellipse style="fill:#132378;" cx="2053.93" cy="2796.249" rx="1381.511" ry="286.751"/>
		</g>
		<g>
			<g>
				<g>
					<path style="fill:#FED650;" d="M3194.384,2459.725c0,0-218.984,362.336-766.517,345.488s-955.112-237.824-1102.429-387.597
						c-147.318-149.773,235.059-292.18,564.393-343.741C2219.164,2022.314,3172.755,2231.751,3194.384,2459.725z"/>
				</g>
				<g style="opacity:0.3;">
					<path style="fill:#132378;" d="M2135.684,2336.962c0,0-87.428,184.433,84.443,282.645
						c171.87,98.211,503.926,63.999,665.297-40.76c161.372-104.759,124.344-194.111,124.344-194.111l144.044,77.894l17.282,29.745
						c0,0-252.99,263.253-649.111,268.164c-396.12,4.911-808.609-127.287-962.474-235.514h-49.106l-71.999-15.111
						c0,0-44.692-48.183-51.821-50.188c-7.129-2.006-4.329-36.38,0-39.654s377.533-63.037,377.533-63.037
						s115.89-113.021,125.714-113.021c9.824,0,101.81-33.46,121.452-26.913c19.642,6.547,135.762,18.336,138.266,47.635
						C2152.052,2294.033,2135.684,2336.962,2135.684,2336.962z"/>
				</g>
				<g>
					<path style="fill:#132378;" d="M2464.092,2822.621c-12.09,0-24.316-0.186-36.743-0.569
						c-245.693-7.561-490.2-57.756-707.075-145.166c-172.095-69.358-320.386-159.553-406.846-247.456
						c-42.3-43.008-41.021-82.783-32.495-108.577c19.15-57.949,93.984-113.037,222.432-163.733
						c106.182-41.912,246.094-78.32,383.857-99.888c135.903-21.279,380.146,0.044,637.432,55.635
						c275.439,59.512,496.201,142.424,605.684,227.473c49.888,38.752,77.08,78.384,80.82,117.793
						c0.342,3.599-0.483,7.212-2.354,10.305c-2.31,3.821-57.964,94.568-182.524,184.031
						C2916.714,2731.164,2731.739,2822.621,2464.092,2822.621z M2011.69,2082.723c-45.156,0-85.459,2.505-119.253,7.795
						c-255.562,40.012-545.518,138.04-579.512,240.906c-8.232,24.902-0.21,49.233,24.526,74.377
						c82.109,83.482,229.927,173.137,395.415,239.834c213.237,85.94,453.745,135.3,695.518,142.74
						c277.349,8.533,466.753-83.545,576.87-162.29c103.618-74.096,158.496-150.659,171.611-170.288
						c-4.966-28.184-27.539-58.042-67.197-88.85C2910.279,2212.06,2336.104,2082.723,2011.69,2082.723z"/>
				</g>
				<g>
					<path style="fill:#132378;" d="M2296.199,2782.739c40.396-24.672,73.663-59.858,100.543-98.718
						c2.68-4.184,9.684-15.082,12.438-19.383c4.149-7.589,11.03-19.396,14.809-27.105c7.867-14.091,14.753-27.712,24.676-41.143
						c6.321-5.742-0.069,31.089-0.774,33.647c-2.584,10.409-5.633,21.306-10.051,31.145c0,0-6.389,15.137-6.389,15.137
						l-7.321,14.751c-15.013,29.374-34.875,57.148-58.307,80.405c-16.148,16.136-34.127,30.723-54.518,41.381
						C2291.239,2822.153,2276.773,2793.329,2296.199,2782.739L2296.199,2782.739z"/>
				</g>
				<g>
					<path style="fill:#132378;" d="M1457.64,2504.392c82.731,8.914,167.074,0.481,248.137-17.706
						c37.847-9,74.139-21.159,112.675-28.255c1.367-0.256,2.321,1.755,1.068,2.576c-12.964,9.106-26.566,17.481-40.792,24.384
						c-42.922,20.479-88.912,33.347-135.385,43.332c-62.712,12.354-127.699,18.057-191.277,8.899
						C1430.164,2533.349,1435.409,2501.329,1457.64,2504.392L1457.64,2504.392z"/>
				</g>
			</g>
			<g>
				<g>
					<path style="fill:#B6EB25;" d="M2963.745,2372.456c0,0,185.156,252.223,162.24,491.205c1.964,39.285-294.635,124.402-494.332,0
						c0,0,3.274-134.75-29.464-213.055c-32.737-78.306-49.106-145.01,0-222.965
						C2651.295,2349.686,2821.147,2238.087,2963.745,2372.456z"/>
				</g>
				<g style="opacity:0.5;">
					<path style="fill:#FFFFFF;" d="M2856.624,2331.68c0,0,60.818,50.333,94.704,108.033
						c33.886,57.699,117.173,191.36,137.526,311.132c0,0,4.365-4.687,9.304-7.454s22.354-17.636,22.354-17.636
						s-10.078-82.942-55.501-184.492c-45.423-101.55-79.292-158.654-119.086-184.229
						C2906.131,2331.459,2854.481,2310.811,2856.624,2331.68z"/>
				</g>
				<g style="opacity:0.3;">
					<path style="fill:#132378;" d="M3084.475,2755.621c0,0-105.398,38.882-246.578-34.777
						c-141.179-73.659-154.998-375.284,3.683-405.123c0,0-73.623-20.497-168.169,41.313c-94.547,61.81-83.498,155.111-42.986,233.68
						c40.512,78.569,61.409,173.466,41.753,294.819c0,0,75.15,27.372,94.386,31.11c19.236,3.739,31.83-14.107,31.83-14.107
						s0.851-108.711,44.116-97.323s63.176,105.917,63.176,105.917l30.395,15.623l17.305-15.525c0,0-19.323-123.272,20.371-116.315
						c39.694,6.957,75.571,92.718,75.571,92.718l16.912-37.884C3066.24,2849.747,3057.629,2773.81,3084.475,2755.621z"/>
				</g>
				<g>
					<path style="fill:#FFFFFF;" d="M2798.395,2922.41c0,0,2.291-130.771,51.178-116.04
						c48.888,14.732,65.281,121.701,65.281,121.701"/>
				</g>
				<g>
					<path style="fill:#FFFFFF;" d="M2954.755,2925.008c0,0-15.373-126.822,19.001-130.095
						c34.374-3.274,83.503,109.744,83.503,109.744s-15.878-159.753,63.253-169.123c0,0,8.938,108.275,7.437,115.441
						s-14.78,29.5-18.41,31.669c-3.631,2.169-55.834,22.193-96.831,33.319C2971.711,2927.089,2954.755,2925.008,2954.755,2925.008z"
						/>
				</g>
				<g>
					<path style="fill:#132378;" d="M2884.141,2945.817c-85.513,0-180.098-17.212-261.396-67.857
						c-5.063-3.152-8.076-8.747-7.935-14.707c0.029-1.311,2.788-132.119-28.164-206.15c-30.059-71.902-54.717-149.539,1.289-238.443
						c33.584-53.313,112.588-113.008,198.613-123.948c68.755-8.736,134.014,13.901,188.75,65.481
						c0.742,0.701,1.421,1.468,2.026,2.293c7.705,10.496,188.228,259.573,165.518,501.87c-0.186,18.408-20.371,30.283-27.129,34.258
						C3078.775,2920.348,2988.169,2945.817,2884.141,2945.817z M2648.604,2854.225c118.374,69.406,272.324,67.117,378.516,41.248
						c52.539-12.8,77.231-27.678,82.129-33.745c21.05-221.55-144.624-459.06-158.218-478.098
						c-47.544-44.292-101.421-62.949-160.234-55.491c-75.664,9.621-144.98,61.855-174.355,108.481
						c-43.174,68.542-32.856,125.801,1.289,207.488C2646.617,2713.19,2648.692,2821.071,2648.604,2854.225z"/>
				</g>
				<g>
					<path style="fill:#132378;" d="M2914.834,2944.918c-8.179,0-15.356-5.964-16.631-14.297
						c-5.762-37.3-25.381-99.651-53.491-108.12c-3.062-0.916-4.312-0.264-5.625,0.698c-15.229,11.103-23.237,65.945-23.848,99.511
						c-0.171,9.199-7.681,16.543-16.841,16.543c-0.103,0-0.205,0-0.308-0.003c-9.297-0.166-16.704-7.834-16.543-17.136
						c0.293-16.685,3.481-101.186,37.676-126.133c10.376-7.571,22.554-9.558,35.205-5.742
						c57.417,17.3,75.234,123.255,77.075,135.278c1.411,9.197-4.902,17.795-14.097,19.204
						C2916.543,2944.855,2915.679,2944.918,2914.834,2944.918z"/>
				</g>
				<g>
					<path style="fill:#132378;" d="M2954.737,2941.852c-8.403,0-15.669-6.269-16.704-14.817
						c-2.998-24.744-10.977-107.727,12.324-136.685c7.3-9.07,15.884-11.646,21.802-12.207c24.512-2.371,49.214,26.225,68.706,57.82
						c4.99-50.488,22.622-110.642,77.666-117.161c9.268-1.089,17.617,5.51,18.711,14.751c1.094,9.238-5.508,17.615-14.746,18.711
						c-60.854,7.205-48.608,149.302-48.472,150.735c0.815,8.252-4.502,15.872-12.529,17.957c-8.003,2.09-16.377-1.975-19.683-9.58
						c-21.396-49.17-52.661-96.406-65.605-99.531c-8.413,9.864-10.708,61.633-4.727,111.138c1.118,9.236-5.464,17.629-14.697,18.748
						C2956.094,2941.813,2955.411,2941.852,2954.737,2941.852z"/>
				</g>
			</g>
			<g>
				<g>
					<path style="fill:#B6EB25;" d="M2243.656,2429.831c0,0,73.719,364.32-223.371,498.924
						c-130.455,51.123-376.811-23.12-386.056-62.112c-9.246-38.993,172.446-269.257,194.544-481.906
						c27.008-87.429,146.666-110.452,262.716-89.885C2207.539,2315.418,2243.656,2429.831,2243.656,2429.831z"/>
				</g>
				<g style="opacity:0.5;">
					<path style="fill:#FFFFFF;" d="M1697.141,2787.904c0,0,90.868-90.385,134.575-203.329
						c43.707-112.944,21.182-239.923,21.182-239.923l-33.947,52.093c0,0,0.192,79.077-41.03,172.124
						c-41.222,93.047-101.354,201.093-101.354,201.093L1697.141,2787.904z"/>
				</g>
				<g style="opacity:0.3;">
					<path style="fill:#132378;" d="M1723.195,2797.798l22.098-37.127c0,0,191.513,5.596,302.001-106.119
						c110.488-111.716,82.576-367.093-133.038-351.12c0,0,67.973-20.857,166.184-8.58c98.212,12.276,125.22,79.797,125.22,79.797
						s89.579,343.438-181.097,509.935c0,0-14.473-52.19-43.135-52.107s-74.085,79.88-74.085,79.88l-18.268-8.488
						c0,0-12.423-74.66-40.659-73.599c-28.236,1.062-85.407,64.373-85.407,64.373l-24.376-7.634L1723.195,2797.798z"/>
				</g>
				<g>
					<path style="fill:#FFFFFF;" d="M2034.674,2921.899c0,0-19.299-91.795-46.307-91.552
						c-27.008,0.243-88.712,115.773-88.712,115.773s-21.776-108.65-51.24-115.85c-29.464-7.2-108.089,90.882-108.089,90.882
						s-2.399-95.958-17.131-123.355c-14.732-27.396-65.794,7.415-65.794,7.415s-43.66,41.101-23.172,61.429
						c20.488,20.328,82.547,62.699,180.284,71.074C1912.25,2946.092,2000.551,2940.99,2034.674,2921.899z"/>
				</g>
				<g>
					<path style="fill:#132378;" d="M1910.083,2963.197c-97.827,0-203.257-29.519-253.169-55.642
						c-23.599-12.354-36.016-24.119-39.077-37.026c-4.668-19.68,11.006-49.128,50.098-119.768
						c51.904-93.801,130.342-235.554,144.077-367.766c0.117-1.096,0.337-2.18,0.664-3.232
						c14.312-46.326,52.104-79.739,109.292-96.626c48.369-14.28,109.619-16.013,172.461-4.875
						c124.668,22.097,163.691,141.428,165.293,146.499c0.181,0.569,0.327,1.145,0.449,1.731
						c0.776,3.845,18.838,95.442-0.195,205.203c-25.469,146.933-105.952,254.961-232.739,312.405
						c-0.269,0.122-0.537,0.235-0.806,0.342C1992.334,2957.802,1951.895,2963.197,1910.083,2963.197z M1650.743,2862.597
						c7.109,10.635,58.35,36.733,140.61,53.691c89.131,18.369,170.151,17.253,222.383-3.064
						c117.271-53.279,188.887-149.59,212.866-286.262c17.207-98.072,2.51-183.198,0.713-192.891
						c-3.667-10.789-38.398-104.844-138.765-122.632c-102.935-18.24-217.646-1.482-243.208,76.765
						c-14.932,138.516-94.922,283.076-147.93,378.87C1675.835,2806.068,1651.446,2850.146,1650.743,2862.597z M1650.347,2861.933"/>
				</g>
				<g>
					<path style="fill:#132378;" d="M1899.659,2962.965c-0.815,0-1.636-0.059-2.461-0.18c-7.031-1.035-12.661-6.379-14.063-13.352
						c-9.717-48.384-27.93-96.729-38.569-102.664c-13.306,1.25-55.444,40.471-91.094,84.925c-4.429,5.517-11.851,7.68-18.53,5.422
						c-6.699-2.263-11.279-8.469-11.455-15.539c-0.898-35.559-5.796-98.44-15.132-115.801c-0.522-0.969-0.82-1.155-1.729-1.379
						c-8.579-2.097-28.618,7.207-39.756,14.751c-7.681,5.215-18.164,3.218-23.389-4.47c-5.225-7.688-3.247-18.147,4.429-23.381
						c6.479-4.417,40.122-26.125,66.699-19.634c10.288,2.512,18.384,8.791,23.423,18.157c9.707,18.052,14.546,56.897,16.934,88.103
						c31.626-34.9,71.333-70.405,97.446-64.016c25.137,6.142,42.759,49.104,53.55,86.665c26.997-45.276,58.291-86.853,82.251-87.068
						c0.083,0,0.176-0.002,0.259-0.002c35.347,0,54.438,65.701,62.686,104.931c1.914,9.104-3.911,18.032-13.013,19.949
						c-9.136,1.914-18.042-3.911-19.956-13.01c-7.373-34.976-21.196-70.491-29.927-77.578
						c-13.247,7.605-46.685,55.591-73.75,106.264C1911.558,2959.594,1905.806,2962.965,1899.659,2962.965z M1989.927,2847.015"/>
				</g>
			</g>
			<g>
				<g>
					<path style="fill:#19B5FF;" d="M2054.659,1391.304c0,0,184.147-90.846,515.611,0s510.701,414.944,591.725,734.132
						c17.187,68.748,58.927,108.033,58.927,108.033s51.561-14.732,78.569,44.195s-27.008,215.716-181.692,177.834
						s-191.513-180.289-358.473-126.273c-166.96,54.017-189.057,211.155-397.757,157.139
						c-208.7-54.017-143.061-192.025-336.702-199.135s-223.105,199.135-532.471,127.931
						C1183.031,2343.957,1509.584,1595.726,2054.659,1391.304z"/>
				</g>
				<g>
					<path style="fill:#80DEFF;" d="M1615.434,2306.978c0,0,132.742-66.319,267.569-127.614s251.562-26.15,324.331,37.199
						c72.769,63.349,179.908,156.614,278.788,111.313c98.88-45.301,177.35-174.328,334.538-149.099
						c157.189,25.229,196.523,93.665,293.482,113.463c96.959,19.798,102.322-48.574,102.322-48.574s26.206-14.124,38.43-8.886
						c12.224,5.237,140.396,97.37-49.91,220.719c-80.636,42.006-276.84-107.323-276.84-107.323s-108.254-70.755-207.596-3.522
						s-205.377,182.815-328.009,152.851c-122.633-29.964-187.112-106.361-187.112-106.361s-43.129-99.709-169.38-103.32
						c-126.25-3.611-204.667,69.211-204.667,69.211s-85.269,77.769-227.676,74.495s-199.758-74.495-199.758-74.495
						s9.882-21.337,11.519-20.071C1417.102,2338.228,1501.886,2362.428,1615.434,2306.978z"/>
				</g>
				<g style="opacity:0.5;">
					<path style="fill:#FFFFFF;" d="M1848.415,2198.851c8.594,3.927,176.781-45.667,261.489,0
						c84.708,45.667,169.421,192.984,317.963,185.618c61.379,0.267,114.168-34.16,189.054-102.401
						c74.886-68.241,202.562-106.298,367.066-5.631c164.504,100.667,241.521-5.127,232.025-6.138
						c-9.495-1.01-35.826,49.32-137.608,11.77c-101.782-37.55-101.782-99.038-278.563-102.668s-290.952,145.521-290.952,145.521
						s-82.489,56.988-205.135-28.281c-122.646-85.269-128.784-138.124-257.687-150.367S1848.415,2198.851,1848.415,2198.851z"/>
				</g>
				<g style="opacity:0.5;">
					<path style="fill:#FFFFFF;" d="M2905.685,1609.508c0,0-114.437-176.67-382.066-236.722
						c-267.626-60.052-475.05,19.756-502.921,32.089c0,0,189.149-13.451,376.767,10.323c-2.335,2.155-3.908,4.586-4.565,7.307
						c-5.395,22.261,50.418,54.89,124.658,72.877c74.243,17.987,138.799,14.523,144.191-7.739c0.449-1.847,0.325-3.786-0.043-5.761
						C2809.716,1539.243,2905.685,1609.508,2905.685,1609.508z"/>
				</g>
				<g style="opacity:0.5;">
					<path style="fill:#FFFFFF;" d="M1855.781,1506.703c0,0,108.033,127.675,109.67,150.591
						c1.637,22.916-34.374,152.228-34.374,152.228s100.204-122.402,102.553-125.593c2.35-3.191,0-36.478,0-36.478l-127.451-155.547
						l-27.92-11.826L1855.781,1506.703z"/>
				</g>
				<g style="opacity:0.5;">
					<path style="fill:#FFFFFF;" d="M2034.674,1701.489c0,0,252.183,72.022,269.079,78.569s79.097,90.027,80.734,101.485
						c1.637,11.458,39.635,221.072,39.635,221.072l12.744-293.093h271.719l127.675,193.15l-57.29-224.25l145.681-62.201
						c0,0,93.301,99.849,173.507,247.166c0,0-27.945-144.087-157.198-315.936h-22.073l-139.003,78.907l-59.841,9.096
						l-273.355,10.265l-71.524-10.265l-309.852-78.16l-22.864,14.781L2034.674,1701.489z"/>
				</g>
				<g style="opacity:0.3;">
					<path style="fill:#132378;" d="M1725.272,1597.526c0,0-110.045,318.668,111.717,444.057c0,0,77.32-212.289,179.414-333.686
						c0,0,7.565,184.287,120.509,280.043c112.943,95.756,233.253,63.838,233.253,63.838s4.711,144.963-12.99,271.974l25.267,13.211
						l20.275-17.558c0,0,25.929-231.931,25.151-267.627c-0.778-35.696,12.273-127.562,12.273-127.562
						s44.195,100.554,159.594,134.928c115.399,34.374,192.74-51.561,192.74-51.561s47.978,105.578,64.501,176.781l36.166,14.488
						v-24.309l-85.528-287.782c0,0,124.812,153.969,277.041,146.603c0,0,17.187,41.673,35.602,112.91
						c18.415,71.237,79.341,121.12,79.341,121.12s-24.047,36.968-85.454,24.847c-61.407-12.12-165.857-104.318-293.482-113.463
						c-127.625-9.145-217.182,63.324-271.373,103.89c-54.191,40.566-93.327,96.746-209.884,33.595
						c-116.557-63.151-160.654-172.251-310.476-169.876c-149.822,2.375-238.925,93.623-357.077,139.189
						c-118.152,45.566-201.068,76.478-266.989,44.718c-65.92-31.759-30.267-176.48,43.213-366.907
						S1725.272,1597.526,1725.272,1597.526z"/>
				</g>
				<g style="opacity:0.3;">
					<path style="fill:#132378;" d="M1992.824,1417.207c0,0,62.654,108.504,263.988,192.301
						c201.334,83.797,466.506,51.06,579.449,11.775l49.163,46.979c0,0-97.813,54.848-105.54,58.096
						c-7.726,3.248-48.4,10.843-48.4,10.843l-292.36,9.002l-36.408-4.296l-313.967-73.525l-46.239-21.873l-142.856-162.212
						l9.165-22.955L1992.824,1417.207z"/>
				</g>
				<g style="opacity:0.3;">
					<path style="fill:#132378;" d="M1587.619,2329.252c0,0,192.224-37.047,312.036-85.239
						c119.812-48.192,195.502-35.097,291.88,56.567c96.378,91.664,189.679,140.77,317.354,91.664
						c127.675-49.106,209.518-194.786,356.836-132.586c147.317,62.201,231.583,148.355,333.873,117.854s99.895-99.849,99.895-99.849
						s39.285,129.428-78.569,171.928c-117.854,42.5-257.178-77.137-257.178-77.137s-119.53-101.646-225.691-35.493
						c-106.161,66.152-174.104,161.039-322.763,160.54c-148.659-0.499-209.865-106.359-209.865-106.359
						s-70.177-130.078-214.003-102.955c-143.827,27.124-192.447,127.838-357.194,141.318s-218.764-57.844-218.764-57.844
						l15.884-25.836c0,0,52.624-3.292,58.813-4.073C1496.351,2340.973,1587.619,2329.252,1587.619,2329.252z"/>
				</g>
				<g>
					<path style="fill:#132378;" d="M2441.006,2514.394c-24.595,0-52.163-3.569-83.657-11.721
						c-106.436-27.546-145.337-76.064-179.663-118.87c-34.204-42.659-61.226-76.352-153.438-79.736
						c-74.263-2.683-121.748,27.554-176.67,62.617c-79.604,50.818-169.834,108.413-358.96,64.895
						c-79.009-18.186-125.923-79.422-132.095-172.427c-8.55-128.804,61.758-312.727,183.496-479.993
						c137.217-188.538,317.607-331.76,507.998-403.359c15.557-7.41,200.576-90.127,526.704-0.745
						c387.314,106.155,544.424,513.105,603.604,746.235c12.061,48.235,37.363,81.153,48.604,93.968
						c25.117-2.698,65.303,6.138,87.881,55.388c16.426,35.847,8.926,102.571-32.07,152.18
						c-23.213,28.081-76.006,71.792-168.95,49.033c-64.429-15.776-109.634-48.916-149.517-78.152
						c-59.8-43.833-107.036-78.448-199.761-48.455c-60.19,19.475-100.698,53.128-139.868,85.672
						C2573.311,2473.571,2524.17,2514.391,2441.006,2514.394z M2015.298,2270.206c3.354,0,6.748,0.061,10.19,0.188
						c107.617,3.953,142.041,46.88,178.481,92.329c32.559,40.603,66.226,82.588,161.821,107.332
						c121.265,31.387,172.471-11.172,237.319-65.046c39.688-32.971,84.668-70.342,151.03-91.812
						c109.131-35.305,167.861,7.746,230.054,53.337c39.175,28.718,79.688,58.413,137.612,72.6
						c71.309,17.466,112.754-10.901,134.961-37.771c31.123-37.664,39.297-90.74,27.412-116.68
						c-20.049-43.74-54.888-35.999-58.794-34.971c-5.591,1.475-11.772,0.002-16.011-3.977
						c-1.851-1.743-45.542-43.508-63.721-116.213c-57.363-225.969-208.989-620.332-579.839-721.973
						c-320.342-87.791-501.934-2-503.735-1.123c-0.483,0.234-1.006,0.461-1.504,0.65
						c-411.401,154.289-686.045,614.731-670.435,849.844c5.254,79.121,40.928,126.838,106.035,141.821
						c175.356,40.366,255.64-10.894,333.271-60.457C1881.905,2304.794,1936.08,2270.206,2015.298,2270.206z M2054.659,1391.303
						h0.049H2054.659z"/>
				</g>
				<g>
					<path style="fill:#132378;" d="M1476.563,2358.722c-32.612,0.002-64.932-6.016-96.807-20.149
						c-8.506-3.769-12.344-13.723-8.574-22.229c3.77-8.506,13.726-12.341,22.227-8.572
						c110.723,49.089,236.245-17.468,357.627-81.833c92.524-49.065,179.917-95.405,264.126-96.479
						c120.435-1.507,175.439,48.65,228.73,97.18c35.566,32.385,72.339,65.872,130.41,85.388
						c81.665,27.439,114.443-0.239,164.038-42.168c33.091-27.974,74.272-62.788,139.067-86.58
						c143.687-52.757,236.406-4.558,343.765,51.245c15.405,8.008,31.333,16.289,47.632,24.358
						c38.335,18.984,70.415,23.347,95.376,12.964c30.029-12.493,40.63-43.316,40.732-43.625
						c2.939-8.787,12.432-13.608,21.245-10.713c8.804,2.885,13.638,12.292,10.806,21.113c-0.596,1.846-15.029,45.386-59.302,64.106
						c-34.453,14.573-76.099,9.971-123.809-13.65c-16.592-8.218-32.671-16.575-48.223-24.656
						c-104.409-54.272-186.865-97.146-316.611-49.512c-59.204,21.736-96.245,53.052-128.926,80.681
						c-51.968,43.928-96.836,81.865-196.523,48.374c-64.785-21.773-104.224-57.686-142.363-92.415
						c-52.891-48.167-98.53-89.751-205.615-88.401c-76.06,0.969-159.951,45.457-248.774,92.554
						C1670.909,2306.564,1572.54,2358.715,1476.563,2358.722z"/>
				</g>
				<g>
					<path style="fill:#132378;" d="M2422.134,1763.048c-1.216,0-2.432-0.132-3.623-0.393
						c-132.656-29.194-357.69-79.912-374.331-91.557c-16.821-11.777-132.202-146.377-167.168-187.349
						c-6.035-7.078-5.195-17.71,1.88-23.75c7.08-6.04,17.71-5.2,23.755,1.88c68.735,80.557,147.476,170.469,160.4,181.243
						c22.124,9.797,231.304,57.69,360.762,86.201c101.045-1.897,296.606-6.487,326.709-10.564
						c25.874-3.503,120.347-60.005,173.818-94.797c7.793-5.078,18.232-2.869,23.311,4.934c5.073,7.798,2.866,18.232-4.932,23.308
						c-14.805,9.631-145.845,94.28-187.676,99.944c-39.795,5.388-320.654,10.676-332.593,10.898
						C2422.344,1763.048,2422.242,1763.048,2422.134,1763.048z"/>
				</g>
				<g>
					<path style="fill:#132378;" d="M2905.674,2215.702c-7.441,0-14.248-4.963-16.265-12.492
						c-55.728-208.103-151.406-459.231-152.368-461.743c-3.32-8.691,1.035-18.43,9.722-21.75c8.721-3.311,18.438,1.035,21.753,9.724
						c0.967,2.527,97.256,255.239,153.442,465.054c2.407,8.987-2.93,18.225-11.914,20.633
						C2908.584,2215.517,2907.115,2215.702,2905.674,2215.702z"/>
				</g>
				<g>
					<path style="fill:#132378;" d="M2402.735,2353.81c-0.786,0-1.587-0.054-2.393-0.168c-9.209-1.311-15.615-9.839-14.307-19.053
						c40.425-284.278,19.512-584.18,19.297-587.175c-0.669-9.28,6.309-17.344,15.591-18.015c9.238-0.625,17.349,6.309,18.013,15.593
						c0.22,3.032,21.387,306.533-19.541,594.341C2418.199,2347.74,2410.987,2353.81,2402.735,2353.81z"/>
				</g>
				<g>
					<path style="fill:#132378;" d="M1790.577,2240.976c-0.703,0-1.411-0.044-2.129-0.134c-9.229-1.165-15.771-9.593-14.604-18.823
						c35.942-284.866,257.446-563.547,266.855-575.271c5.835-7.256,16.431-8.413,23.682-2.59c7.256,5.823,8.418,16.426,2.598,23.682
						c-2.246,2.798-224.971,283.113-259.707,558.399C1806.197,2234.752,1798.941,2240.976,1790.577,2240.976z"/>
				</g>
			</g>
			<g>
				<g>
					<path style="fill:#B6EB25;" d="M830.829,1538.191c21.526-92.496,59.25-180.226,113.742-256.246
						c81.746-114.041,220.531-240.427,444.437-273.596c431.915-63.984,719.859,151.542,809.441,552.286
						c89.583,400.744-99.18,872.207-553.491,892.413s-863.831-80.822-947.014-441.155
						c-28.794-165.012,21.963-199.839,73.153-300.866C800.957,1652.093,820.079,1584.384,830.829,1538.191z"/>
				</g>
				<g style="opacity:0.5;">
					<path style="fill:#FFFFFF;" d="M1784.117,1038.7c-356.716-128.012-790.286-2.363-934.231,431.533
						c0,0,81.5-175.499,293.875-293.904c24.701,15.894,85.613,16.302,153.347-1.145c84.147-21.675,146.914-62.678,140.194-91.583
						c-0.281-1.209-0.722-2.362-1.233-3.49c426.285-59.958,624.258,164.427,755.465,451.595
						C2191.534,1531.706,2140.833,1166.711,1784.117,1038.7z"/>
				</g>
				<g style="opacity:0.3;">
					<path style="fill:#132378;" d="M690.339,1905.144c0,0,156.892,460.345,764.515,440.14
						c607.623-20.206,710.003-698.776,710.003-698.776s74.942,515.217-248.873,727.388
						c-123.443,81.602-415.147,114.98-689.418,55.813S695.531,2253.021,690.339,1905.144z"/>
				</g>
				<g>
					<path style="fill:#132378;" d="M1536.441,2472.369c-203.442,0-374.761-27.336-510.415-81.555
						c-188.521-75.349-304.429-201.563-344.497-375.134c-0.068-0.295-0.127-0.593-0.181-0.894
						c-24.18-138.584,6.616-191.621,45.61-258.77c9.463-16.299,19.253-33.152,29.106-52.607
						c29.063-57.344,47.773-123.574,58.359-169.036c22.808-98.032,61.992-186.265,116.455-262.244
						c77.91-108.687,220.205-245.566,455.659-280.447c216.602-32.095,400.044,3.149,545.225,104.731
						c139.727,97.764,237.632,257.019,283.125,460.544c55.142,246.658,5.22,509.878-130.283,686.938
						c-107.007,139.824-258.774,217.967-438.901,225.979C1608.331,2471.539,1571.89,2472.369,1536.441,2472.369z M714.463,2008.546
						c88.911,383.704,554.595,444.368,929.746,427.668c169.849-7.554,312.881-81.135,413.638-212.793
						c129.609-169.361,177.183-421.917,124.16-659.114c-90.254-403.782-378.374-600.349-790.527-539.294
						c-223.784,33.149-359.102,163.354-433.218,266.746c-51.865,72.361-89.224,156.558-111.025,250.251l0,0
						c-11.001,47.271-30.537,116.287-61.113,176.629c-10.293,20.313-20.327,37.59-30.029,54.299
						C717.823,1838.839,692.525,1882.394,714.463,2008.546z M830.831,1538.192h0.049H830.831z"/>
				</g>
				<g>
					<path style="fill:#132378;" d="M1612.736,1469.741c45.518-40.812,124.427-43.379,166.599,4.158
						c13.707,15.434,22.81,33.642,27.079,52.437c0.703,3.098-1.238,6.179-4.335,6.882c-2.251,0.511-4.493-0.372-5.82-2.085
						c-21.301-26.914-44.782-49.415-78.179-56.48c-32.473-7.02-66.532-0.949-99.948,4.937
						C1612.449,1481.135,1608.352,1473.661,1612.736,1469.741L1612.736,1469.741z"/>
				</g>
				<g>
					<path style="fill:#132378;" d="M1021.165,1362.486c37.213-41.92,113.223-55.642,153.229-9.865
						c12.891,14.87,20.149,32.569,22.674,50.189c0.453,3.156-1.738,6.08-4.895,6.533c-2.229,0.318-4.337-0.678-5.549-2.404
						c-17.943-24.959-38.398-45.931-68.834-48.79c-29.785-2.927-60.38,6.503-90.445,13.715
						C1021.864,1373.694,1017.306,1366.757,1021.165,1362.486L1021.165,1362.486z"/>
				</g>
				<g>
					<g>
						<ellipse style="fill:#132378;" cx="1650.598" cy="1792.335" rx="129.887" ry="171.052"/>
					</g>
					<g>
						<ellipse style="fill:#FFFFFF;" cx="1634.229" cy="1735.454" rx="46.61" ry="56.881"/>
					</g>
					<g>
						
							<ellipse transform="matrix(0.8372 -0.5468 0.5468 0.8372 -764.9125 1231.8896)" style="fill:#767F91;" cx="1687.01" cy="1900.93" rx="32.715" ry="19.198"/>
					</g>
				</g>
				<g>
					<g>
						<ellipse style="fill:#132378;" cx="1050.185" cy="1647.451" rx="118.114" ry="155.547"/>
					</g>
					<g>
						<ellipse style="fill:#FFFFFF;" cx="1065.07" cy="1595.726" rx="42.385" ry="51.725"/>
					</g>
					<g>
						
							<ellipse transform="matrix(0.5468 -0.8372 0.8372 0.5468 -1001.0901 1642.8785)" style="fill:#767F91;" cx="1017.074" cy="1746.202" rx="17.458" ry="29.749"/>
					</g>
				</g>
				<g>
					<path style="fill:#132378;" d="M1320.176,2079.967c-153.447,0-196.191-87.058-198.242-91.443
						c-3.936-8.43-0.298-18.457,8.135-22.395c8.374-3.926,18.364-0.332,22.339,8.02c2.207,4.495,53.267,102.886,259.819,62.434
						c9.146-1.772,17.983,4.165,19.771,13.296c1.787,9.131-4.165,17.983-13.296,19.771
						C1381.661,2076.901,1348.96,2079.967,1320.176,2079.967z"/>
				</g>
				<g>
					<path style="fill:#132378;" d="M1458.607,1992.116c-18.899,47.552-28.297,69.987-10.898,120.029
						c1.126,3.35-0.678,7.117-4.24,7.864c-1.65,0.361-3.308-0.029-4.592-0.925c-3.966-2.813-7.733-6.06-11.339-9.372
						c-31.922-31.55-27.842-87.335,6.359-115.441c5.099-3.805,20.431-17.09,24.933-7.139
						C1459.517,1988.832,1459.276,1990.546,1458.607,1992.116L1458.607,1992.116z"/>
				</g>
				<g>
					<path style="fill:#132378;" d="M1152.504,1899.725c23.227,35.368,9.514,92.002-32.131,106.898
						c-13.647,4.885-27.628,5.143-40.154,1.655c-3.153-0.878-4.999-4.147-4.12-7.301c0.516-1.85,1.841-3.235,3.497-3.912
						c19.523-8.548,35.702-17.061,44.829-35.254c9.056-17.938,11.586-38.937,17.109-59.675
						C1142.282,1896.856,1149.684,1895.216,1152.504,1899.725L1152.504,1899.725z"/>
				</g>
			</g>
			<g>
				<g>
					<path style="fill:#20C920;" d="M880.211,2559.799c0,0,101.273-11.315,184.859-100.074c0,0,117.96,50.264,198.985-22.522
						c81.025-72.785,105.38-220.468,58.828-374.15c0,0-88.186,13.105-148.394-40.825c0,0-187.883,57.315-258.268,194.023
						c-70.385,136.709,39.285,218.552,83.48,207.094c0,0-3.274,54.016-130.949,88.391
						C868.753,2511.735,842.563,2539.115,880.211,2559.799z"/>
				</g>
				<g style="opacity:0.5;">
					<path style="fill:#FFFFFF;" d="M938.337,2401.524c0,0-29.481-107.491,55.636-208.977s170.508-166.96,170.508-166.96
						s-139.856,32.701-211.244,136.251c-71.388,103.549-68.933,139.56-59.93,175.571
						C902.309,2373.42,938.337,2401.524,938.337,2401.524z"/>
				</g>
				<g style="opacity:0.3;">
					<path style="fill:#132378;" d="M948.959,2403.152c0,0,92.805-90.035,130.949-179.025
						c38.144-88.991,44.832-133.064,44.832-133.064l67.451-49.48l80.95,21.481c0,0,34.29,224.137-27.91,321.673
						c-62.201,97.536-123.874,89.726-130.644,88.498c-6.769-1.228-29.352-13.509-29.352-13.509s-12.693-6.098-26.607,7.815
						c-13.913,13.913-81.703,76.499-134.309,81.581c-52.606,5.082-54.485,3.487-54.722,3.279
						c-0.237-0.208,123.556-36.573,125.193-106.139l-7.37-22.031L948.959,2403.152z"/>
				</g>
				<g>
					<path style="fill:#132378;" d="M880.21,2576.644c-2.827,0-5.615-0.71-8.11-2.08c-20.864-11.462-27.065-25.722-28.599-35.669
						c-3.232-21.045,11.401-37.051,13.081-38.806c2.124-2.224,4.824-3.821,7.793-4.622c66.978-18.032,96.27-40.994,108.984-56.477
						c-22.686-5.671-46.973-21.667-65.107-44.343c-18.809-23.521-57.139-88.738-7.012-186.108
						c72.808-141.409,260.381-200,268.33-202.424c5.63-1.721,11.758-0.369,16.157,3.564
						c53.696,48.093,133.872,36.826,134.678,36.711c8.252-1.223,16.177,3.782,18.599,11.78
						c48.364,159.663,23.364,313.362-63.691,391.565c-73.882,66.367-172.871,40.833-205.825,29.612
						c-85.127,84.868-183.149,96.719-187.407,97.195C881.456,2576.61,880.835,2576.644,880.21,2576.644z M878.789,2526.444
						c-1.255,2.212-2.368,5.054-1.973,7.41c0.43,2.549,2.891,5.476,6.934,8.34c21.396-3.855,101.748-22.549,169.053-94.018
						c4.839-5.137,12.383-6.714,18.867-3.948c1.055,0.445,109.238,45.015,181.123-19.555c73.887-66.372,96.514-203.22,57.759-343.63
						c-28.003,1.401-90.078-0.667-139.653-39.827c-36.68,12.964-181.777,70.246-239.702,182.749
						c-39.629,76.975-14.898,126.794,3.369,149.641c21.27,26.597,49.048,36.489,60.908,33.433c5.225-1.36,10.772-0.129,14.937,3.301
						c4.165,3.428,6.436,8.643,6.108,14.026C1016.114,2431.037,1008.809,2489.838,878.789,2526.444z M982.945,2421.676
						L982.945,2421.676L982.945,2421.676z"/>
				</g>
				<g>
					<path style="fill:#132378;" d="M1065.069,2476.576c-1.924,0-3.882-0.332-5.796-1.033c-8.735-3.198-13.223-12.876-10.024-21.612
						c4.443-12.122,3.198-17.156,2.412-17.964c-4.541-4.671-27.622-3.015-46.582,3.342c-8.809,2.957-18.369-1.782-21.333-10.596
						c-2.964-8.811,1.758-18.354,10.561-21.33c9.614-3.252,58.716-18.276,81.475,5.059c11.841,12.143,13.56,30,5.107,53.076
						C1078.389,2472.345,1071.934,2476.576,1065.069,2476.576z"/>
				</g>
				<g>
					<path style="fill:#132378;" d="M1045.723,2433.302c-3.545,0-7.119-1.116-10.161-3.42c-7.417-5.615-8.872-16.181-3.257-23.598
						c1.436-1.899,144.067-191.729,175.386-357.632c1.724-9.138,10.552-15.134,19.678-13.43c9.141,1.726,15.156,10.537,13.428,19.68
						c-32.798,173.767-175.571,363.725-181.636,371.726C1055.85,2431,1050.816,2433.302,1045.723,2433.302z"/>
				</g>
				<g>
					<path style="fill:#132378;" d="M1112.053,2119.859c34.684,23.18,60.174,60.118,67.348,101.566
						c-0.001,0-24.147-12.264-24.147-12.264c38.075-18.099,77.225-35.191,119.454-40.575c6.049-0.63,8.643,7.957,3.248,10.752
						c-26.521,15.401-53.148,31.129-80.32,45.511c-9.031,4.836-18.186,9.634-27.208,14.242c-9.602,5.093-21.925-0.862-23.994-11.492
						c-4.918-26.277-16.694-50.873-29.068-74.745c-4.261-8.447-9.116-16.881-13.491-25.455
						C1101.114,2122.414,1107.373,2116.72,1112.053,2119.859L1112.053,2119.859z"/>
				</g>
				<g>
					<path style="fill:#132378;" d="M1038.938,2220.692c36.043,33.638,62.171,78.766,68.637,128.171
						c-0.001,0-24.766-12.877-24.766-12.877c25.497-12.893,52.03-21.016,79.847-26.211c27.251-4.803,55.104-6.362,82.375-2.925
						c3.116,0.393,5.325,3.237,4.932,6.354c-0.314,2.492-2.196,4.401-4.529,4.869c-13.038,3.063-25.898,5.443-38.536,8.85
						c-31.319,7.717-61.94,17.868-91.437,30.675c-5.626,2.573-11.781,5.333-16.528,7.889c-10.032,5.66-23.279-1.101-24.714-12.462
						c-4.264-32.557-16.896-63.741-30.031-93.967c-4.482-10.579-9.578-21.125-14.244-31.746
						C1027.455,2221.873,1034.506,2216.673,1038.938,2220.692L1038.938,2220.692z"/>
				</g>
			</g>
			<g>
				<g>
					<path style="fill:#B6EB25;" d="M1664.43,2634.836c0,0-186.764,193.897-412.651,125.835
						c-225.887-68.063-280.722-351.276-114.58-403.637c166.141-52.361,314.914,68.504,342.422,179.942
						C1479.621,2536.976,1595.249,2605.602,1664.43,2634.836z"/>
				</g>
				<g style="opacity:0.3;">
					<path style="fill:#132378;" d="M1102.693,2497.502c0,0,96.707,127.177,224.382,145.182
						c127.675,18.006,140.262-140.316,140.262-140.316l29.971,57.431l108.033,50.148c0,0-183.392,204.864-381.421,140.898
						c-198.028-63.966-183.244-262.385-183.244-262.385l15.609-23.65L1102.693,2497.502z"/>
				</g>
				<g>
					<path style="fill:#FFFFFF;" d="M1120.011,2363.628c0,0,10.64,117.007,0,133.876c-10.64,16.869-74.28-42.006-74.28-42.006
						S1079.326,2376.52,1120.011,2363.628z"/>
				</g>
				<g>
					<path style="fill:#FFFFFF;" d="M1160.697,2350.737c0,0,41.158,102.573,66.529,104.795
						c25.371,2.221,36.829-104.795,36.829-104.795"/>
				</g>
				<g>
					<path style="fill:#132378;" d="M1350.875,2792.198c-33.271,0-68.081-4.587-103.955-15.398
						c-145.586-43.867-222.427-172.324-223.086-276.545c-0.493-78.213,39.99-137.761,108.301-159.29
						c75.864-23.909,156.484-15.264,227.007,24.345c65.908,37.022,117.012,98.057,134.971,160.642
						c24.336,14.246,118.359,68.635,176.875,93.364c5.112,2.161,8.833,6.699,9.946,12.134c1.113,5.437-0.522,11.074-4.37,15.071
						C1669.864,2653.478,1533.765,2792.198,1350.875,2792.198z M1217.608,2361.435c-25.259,0-50.591,3.865-75.347,11.665
						c-54.253,17.1-85.137,63.369-84.736,126.943c0.581,91.86,69.165,205.342,199.111,244.497
						c174.556,52.588,326.841-60.598,377.671-104.753c-68.726-32.31-159.033-85.798-163.286-88.323
						c-3.882-2.305-6.675-6.07-7.759-10.449c-13.887-56.267-60.107-112.336-120.62-146.325
						C1303.379,2372.638,1260.606,2361.435,1217.608,2361.435z"/>
				</g>
				<g>
					<path style="fill:#132378;" d="M1496.091,2533.435c3.779,13.553,5.664,27.541,6.913,41.543
						c0.498,15.581,5.065,28.743-4.324,43.96c-0.588,0.926-1.826,1.192-2.742,0.59c-14.812-10.002-16.064-23.895-22.014-38.297
						c-4.616-13.279-8.646-26.804-10.773-40.713C1460.511,2519.774,1490.062,2513.544,1496.091,2533.435L1496.091,2533.435z"/>
				</g>
				<g>
					<path style="fill:#132378;" d="M1114.214,2517.355c-21.738,0-55.146-26.572-79.922-49.492
						c-6.831-6.319-7.241-16.973-0.928-23.804c6.318-6.833,16.973-7.246,23.809-0.93c17.788,16.443,38.188,31.78,49.78,37.856
						c2.227-21.228,0.22-72.475-3.721-115.83c-0.84-9.268,5.986-17.461,15.254-18.303c9.165-0.845,17.456,5.984,18.301,15.252
						c5.088,55.972,8.784,126.455-2.529,144.387c-3.74,5.938-9.746,9.724-16.909,10.667
						C1116.338,2517.292,1115.289,2517.355,1114.214,2517.355z"/>
				</g>
				<g>
					<path style="fill:#132378;" d="M1228.106,2472.418c-0.776,0-1.558-0.037-2.349-0.105
						c-29.492-2.581-60.161-64.126-80.693-115.303c-3.467-8.635,0.728-18.442,9.36-21.906c8.623-3.46,18.442,0.723,21.909,9.358
						c16.606,41.36,38.687,81.394,50.347,92.153c7.495-12.205,16.592-50.149,20.62-87.676c0.996-9.248,9.316-15.945,18.55-14.951
						c9.248,0.991,15.942,9.292,14.956,18.54C1272.286,2432.108,1254.561,2472.418,1228.106,2472.418z"/>
				</g>
			</g>
			<g>
				<ellipse style="fill:#FF7895;" cx="1664.43" cy="2100.295" rx="90.008" ry="47.179"/>
			</g>
			<g>
				
					<ellipse transform="matrix(0.2125 -0.9772 0.9772 0.2125 -1169.2462 2420.958)" style="fill:#FF7895;" cx="917.326" cy="1935.873" rx="47.179" ry="82.198"/>
			</g>
		</g>
	</g>
</g>
</svg>
